<svg width="210" height="65" viewBox="0 0 210 65" fill="none" xmlns="http://www.w3.org/2000/svg">
<path d="M1 8.64085C1 4.48385 4.62789 1 9.24852 1H200.751C205.372 1 209 4.48385 209 8.64085V56.3592C209 60.5162 205.372 64 200.751 64H9.24852C4.62788 64 1 60.5161 1 56.3591V8.64085Z" stroke="#848484" stroke-width="2"/>
<path d="M42.6607 32.3112C42.6797 30.8363 43.072 29.3902 43.801 28.1074C44.53 26.8246 45.572 25.7468 46.8302 24.9743C46.0309 23.8343 44.9765 22.8961 43.7507 22.2342C42.5248 21.5724 41.1614 21.2051 39.7685 21.1616C36.7974 20.8501 33.9171 22.9372 32.403 22.9372C30.8597 22.9372 28.5286 21.1925 26.0184 21.2441C24.3947 21.2965 22.8124 21.768 21.4254 22.6128C20.0385 23.4575 18.8943 24.6467 18.1044 26.0644C14.6826 31.9812 17.2349 40.6769 20.5128 45.4597C22.1528 47.8016 24.0694 50.4177 26.5774 50.3249C29.0315 50.2232 29.9481 48.762 32.9105 48.762C35.8453 48.762 36.7053 50.3249 39.2641 50.2659C41.8975 50.2232 43.5567 47.9136 45.1392 45.5494C46.3175 43.8807 47.2242 42.0364 47.8258 40.0848C46.2958 39.4385 44.9902 38.3568 44.0717 36.9744C43.1532 35.592 42.6625 33.9702 42.6607 32.3112Z" fill="#848484"/>
<path d="M37.8272 18.0143C39.2631 16.2928 39.9704 14.0802 39.7992 11.8462C37.6055 12.0763 35.5792 13.1234 34.1239 14.7788C33.4124 15.5875 32.8675 16.5284 32.5202 17.5475C32.173 18.5667 32.0303 19.6443 32.1003 20.7186C33.1975 20.7298 34.283 20.4923 35.275 20.0239C36.267 19.5555 37.1396 18.8684 37.8272 18.0143Z" fill="#848484"/>
<path d="M73.3421 43.5154H65.8591L64.0621 48.8147H60.8926L67.9803 29.2085H71.2733L78.361 48.8147H75.1375L73.3421 43.5154ZM66.6341 41.07H72.5656L69.6415 32.4695H69.5597L66.6341 41.07Z" fill="#848484"/>
<path d="M93.6689 41.6679C93.6689 46.11 91.2883 48.964 87.6958 48.964C86.7857 49.0115 85.8807 48.8021 85.0842 48.3598C84.2878 47.9175 83.6322 47.2602 83.1924 46.463H83.1244V53.5432H80.1865V34.5199H83.0303V36.8974H83.0843C83.5443 36.1041 84.211 35.4501 85.0135 35.0052C85.816 34.5602 86.7243 34.3408 87.6417 34.3703C91.2744 34.3703 93.6689 37.2382 93.6689 41.6679ZM90.6491 41.6679C90.6491 38.7739 89.1516 36.8712 86.8667 36.8712C84.622 36.8712 83.1121 38.8139 83.1121 41.6679C83.1121 44.5481 84.622 46.477 86.8667 46.477C89.1516 46.477 90.6491 44.5882 90.6491 41.6679H90.6491Z" fill="#848484"/>
<path d="M109.421 41.6679C109.421 46.11 107.039 48.964 103.447 48.964C102.537 49.0115 101.632 48.8021 100.835 48.3598C100.039 47.9175 99.3831 47.2602 98.9434 46.463H98.8754V53.5432H95.9375V34.5199H98.7812V36.8974H98.8353C99.2952 36.1041 99.9619 35.4501 100.764 35.0052C101.567 34.5602 102.475 34.3408 103.393 34.3703C107.025 34.3703 109.421 37.2382 109.421 41.6679ZM106.4 41.6679C106.4 38.7739 104.903 36.8712 102.618 36.8712C100.373 36.8712 98.8631 38.8139 98.8631 41.6679C98.8631 44.5481 100.373 46.477 102.618 46.477C104.903 46.477 106.4 44.5882 106.4 41.6679Z" fill="#848484"/>
<path d="M119.834 43.3512C120.051 45.2955 121.943 46.5721 124.527 46.5721C127.003 46.5721 128.785 45.2955 128.785 43.5424C128.785 42.0205 127.71 41.1093 125.166 40.4849L122.622 39.8727C119.017 39.0031 117.343 37.3194 117.343 34.5873C117.343 31.2044 120.295 28.8809 124.485 28.8809C128.635 28.8809 131.479 31.2044 131.575 34.5873H128.609C128.431 32.6306 126.812 31.4496 124.445 31.4496C122.078 31.4496 120.459 32.6445 120.459 34.3837C120.459 35.7699 121.493 36.5855 124.024 37.2099L126.186 37.7403C130.214 38.6916 131.886 40.3075 131.886 43.1753C131.886 46.8434 128.962 49.1408 124.309 49.1408C119.956 49.1408 117.016 46.8974 116.826 43.3511L119.834 43.3512Z" fill="#848484"/>
<path d="M138.228 31.1367V34.5195H140.95V36.8431H138.228V44.7235C138.228 45.9478 138.773 46.5182 139.97 46.5182C140.293 46.5126 140.615 46.49 140.936 46.4504V48.76C140.398 48.8604 139.851 48.9059 139.304 48.8957C136.406 48.8957 135.276 47.8087 135.276 45.0365V36.8431H133.195V34.5195H135.276V31.1367H138.228Z" fill="#848484"/>
<path d="M142.525 41.6666C142.525 37.169 145.178 34.3428 149.314 34.3428C153.463 34.3428 156.103 37.1689 156.103 41.6666C156.103 46.1765 153.477 48.9904 149.314 48.9904C145.151 48.9904 142.525 46.1765 142.525 41.6666ZM153.11 41.6666C153.11 38.5813 151.694 36.7604 149.314 36.7604C146.933 36.7604 145.517 38.5952 145.517 41.6666C145.517 44.7641 146.933 46.5712 149.314 46.5712C151.694 46.5712 153.11 44.7641 153.11 41.6666H153.11Z" fill="#848484"/>
<path d="M158.525 34.5197H161.327V36.9528H161.395C161.585 36.1929 162.031 35.5213 162.658 35.051C163.285 34.5807 164.055 34.3403 164.838 34.3702C165.177 34.369 165.514 34.4057 165.845 34.4796V37.2241C165.417 37.0937 164.971 37.0338 164.525 37.0468C164.098 37.0295 163.672 37.1047 163.277 37.2671C162.882 37.4296 162.527 37.6755 162.237 37.9879C161.946 38.3003 161.726 38.6719 161.593 39.0772C161.459 39.4824 161.415 39.9117 161.463 40.3356V48.8142H158.525L158.525 34.5197Z" fill="#848484"/>
<path d="M179.391 44.6146C178.995 47.2095 176.465 48.9904 173.228 48.9904C169.064 48.9904 166.479 46.2042 166.479 41.7344C166.479 37.2507 169.078 34.3428 173.104 34.3428C177.064 34.3428 179.554 37.0595 179.554 41.3937V42.399H169.445V42.5763C169.399 43.1023 169.464 43.6323 169.639 44.131C169.813 44.6296 170.091 45.0856 170.455 45.4685C170.82 45.8515 171.261 46.1527 171.751 46.3521C172.241 46.5515 172.767 46.6446 173.296 46.6252C173.99 46.6901 174.686 46.5295 175.282 46.1673C175.878 45.805 176.34 45.2605 176.601 44.6146L179.391 44.6146ZM169.459 40.3483H176.615C176.641 39.8753 176.569 39.4019 176.404 38.9579C176.238 38.5139 175.983 38.1089 175.653 37.7682C175.323 37.4276 174.927 37.1586 174.488 36.9783C174.05 36.798 173.578 36.7101 173.104 36.7203C172.626 36.7175 172.151 36.8093 171.709 36.9904C171.266 37.1716 170.864 37.4385 170.525 37.7758C170.186 38.1131 169.917 38.5141 169.734 38.9556C169.551 39.3972 169.458 39.8705 169.459 40.3483V40.3483Z" fill="#848484"/>
<path d="M64.8244 17.6354H66.1818C66.4155 17.6645 66.6527 17.6449 66.8784 17.5778C67.1042 17.5108 67.3135 17.3978 67.4934 17.246C67.6732 17.0941 67.8196 16.9067 67.9233 16.6956C68.027 16.4844 68.0858 16.2541 68.096 16.0191C68.096 15.084 67.3915 14.48 66.1968 14.48C65.9574 14.4466 65.7137 14.4614 65.4801 14.5236C65.2465 14.5858 65.0278 14.6942 64.8368 14.8422C64.6459 14.9902 64.4865 15.175 64.3682 15.3855C64.2499 15.5961 64.1751 15.8282 64.1481 16.0681H62.6576C62.6833 15.6326 62.7984 15.207 62.9959 14.8178C63.1934 14.4287 63.469 14.0843 63.8055 13.8061C64.142 13.528 64.5322 13.3219 64.9519 13.2009C65.3716 13.0799 65.8118 13.0465 66.2449 13.1027C68.2438 13.1027 69.6512 14.2203 69.6512 15.8291C69.6559 16.3681 69.4754 16.8924 69.1397 17.3144C68.804 17.7365 68.3336 18.0308 67.8069 18.1482V18.2677C68.4313 18.2953 69.0194 18.5688 69.4425 19.0282C69.8656 19.4876 70.0894 20.0957 70.0649 20.7195C70.0187 21.1679 69.8834 21.6026 69.6667 21.9981C69.4501 22.3936 69.1567 22.7419 68.8035 23.0226C68.4504 23.3034 68.0447 23.5109 67.6102 23.633C67.1757 23.7551 66.7212 23.7894 66.2732 23.7338C65.8244 23.7949 65.3678 23.7652 64.9307 23.6463C64.4936 23.5274 64.085 23.3219 63.7291 23.0419C63.3733 22.7619 63.0775 22.4132 62.8594 22.0167C62.6414 21.6201 62.5055 21.1837 62.46 20.7336H63.9737C64.065 21.7035 64.9573 22.3292 66.2732 22.3292C67.5892 22.3292 68.4482 21.6264 68.4482 20.6357C68.4482 19.6309 67.639 19.012 66.2251 19.012H64.8244V17.6354Z" fill="#848484"/>
<path d="M71.7842 21.3244C71.7842 19.947 72.8127 19.153 74.6338 19.0402L76.7091 18.9207V18.2602C76.7091 17.4521 76.1757 16.9958 75.1405 16.9958C74.2965 16.9958 73.7133 17.3052 73.5438 17.8462H72.0799C72.2345 16.5319 73.474 15.689 75.212 15.689C77.1328 15.689 78.2161 16.6439 78.2161 18.2602V23.4883H76.7589V22.413H76.6393C76.3964 22.7987 76.0555 23.1131 75.6512 23.3242C75.2469 23.5353 74.7937 23.6354 74.338 23.6144C74.0164 23.6478 73.6913 23.6135 73.3838 23.5138C73.0762 23.414 72.793 23.251 72.5524 23.0352C72.3118 22.8195 72.1191 22.5558 71.9868 22.2611C71.8545 21.9664 71.7854 21.6473 71.7842 21.3244ZM76.7091 20.6706V20.0309L74.8381 20.1503C73.783 20.2209 73.3044 20.5793 73.3044 21.2538C73.3044 21.9425 73.9026 22.3433 74.7251 22.3433C74.9661 22.3676 75.2096 22.3433 75.441 22.2718C75.6724 22.2003 75.8871 22.083 76.0722 21.927C76.2573 21.7709 76.409 21.5792 76.5184 21.3634C76.6279 21.1476 76.6927 20.9119 76.7091 20.6706Z" fill="#848484"/>
<path d="M82.2298 17.111V23.4915H80.7178V15.8398H85.7623V17.1109L82.2298 17.111Z" fill="#848484"/>
<path d="M94.9242 19.6582C94.9242 22.0893 93.693 23.6135 91.7589 23.6135C91.2842 23.6459 90.81 23.5421 90.3923 23.3144C89.9746 23.0867 89.6307 22.7446 89.4012 22.3282H89.2816V26.0313H87.7695V15.8357H89.2251V17.1003H89.3381C89.5717 16.6694 89.9201 16.3114 90.3447 16.0659C90.7692 15.8203 91.2535 15.6968 91.744 15.7088C93.693 15.7088 94.9242 17.2263 94.9242 19.6582ZM93.369 19.6582C93.369 18.0419 92.603 17.0653 91.322 17.0653C90.0493 17.0653 89.2533 18.0627 89.2533 19.6649C89.2533 21.2596 90.0492 22.2577 91.3153 22.2577C92.603 22.2577 93.369 21.2811 93.369 19.6582Z" fill="#848484"/>
<path d="M96.9402 26.232V24.9319C97.1038 24.9526 97.2687 24.9621 97.4336 24.9601C97.7557 24.9839 98.0753 24.8881 98.3311 24.691C98.5868 24.4939 98.7607 24.2095 98.8193 23.8922L98.9323 23.5197L96.1592 15.8398H97.8058L99.7266 21.9175H99.8462L101.76 15.8398H103.364L100.508 23.8076C99.8529 25.6695 99.1285 26.2669 97.5666 26.2669C97.4403 26.2669 97.0814 26.2528 96.9402 26.232Z" fill="#848484"/>
<path d="M104.539 21.32H106.044C106.192 21.9946 106.825 22.3464 107.711 22.3464C108.718 22.3464 109.336 21.9033 109.336 21.2147C109.336 20.4771 108.781 20.1253 107.711 20.1253H106.565V18.952H107.691C108.605 18.952 109.07 18.6011 109.07 17.9614C109.07 17.3996 108.62 16.9707 107.691 16.9707C106.845 16.9707 106.227 17.3291 106.129 17.9332H104.672C104.781 17.2391 105.158 16.6154 105.723 16.1963C106.287 15.7773 106.994 15.5962 107.691 15.6921C109.512 15.6921 110.554 16.5144 110.554 17.8071C110.562 18.167 110.447 18.519 110.227 18.8042C110.007 19.0893 109.695 19.2903 109.344 19.3736V19.493C109.762 19.5468 110.145 19.7519 110.421 20.0692C110.698 20.3866 110.848 20.7942 110.843 21.2147C110.843 22.6693 109.604 23.6317 107.711 23.6317C106.038 23.6316 104.679 22.8658 104.539 21.32Z" fill="#848484"/>
<path d="M113.021 23.4915V15.8398H114.52V21.1027H114.64L118.171 15.8399H119.669V23.4915H118.171V18.2004H118.058L114.52 23.4915L113.021 23.4915Z" fill="#848484"/>
<path d="M127.926 17.1109H125.513V23.4914H124V17.1109H121.587V15.8398H127.926V17.1109Z" fill="#848484"/>
<path d="M136.072 21.4224C135.866 22.1217 135.42 22.7265 134.813 23.1311C134.206 23.5357 133.476 23.7145 132.751 23.6361C132.246 23.6494 131.744 23.5529 131.28 23.3532C130.817 23.1534 130.402 22.8554 130.066 22.4796C129.729 22.1038 129.478 21.6594 129.33 21.1771C129.183 20.6948 129.142 20.1862 129.211 19.6867C129.144 19.1856 129.186 18.6759 129.333 18.1922C129.48 17.7085 129.729 17.2619 130.064 16.8829C130.399 16.5038 130.812 16.2011 131.274 15.9951C131.736 15.7891 132.238 15.6848 132.744 15.6891C134.876 15.6891 136.163 17.1437 136.163 19.5464V20.0733H130.753V20.158C130.729 20.4388 130.765 20.7216 130.857 20.9881C130.948 21.2545 131.095 21.4989 131.287 21.7053C131.48 21.9117 131.713 22.0758 131.972 22.1868C132.232 22.2978 132.512 22.3534 132.794 22.35C133.155 22.3932 133.521 22.328 133.846 22.1629C134.17 21.9977 134.438 21.7399 134.615 21.4224L136.072 21.4224ZM130.753 18.9565H134.621C134.64 18.6999 134.606 18.442 134.519 18.1996C134.432 17.9572 134.296 17.7355 134.119 17.5489C133.941 17.3622 133.727 17.2147 133.489 17.1157C133.251 17.0168 132.995 16.9686 132.737 16.9743C132.476 16.9708 132.216 17.0196 131.974 17.118C131.731 17.2164 131.511 17.3623 131.326 17.547C131.141 17.7318 130.995 17.9518 130.897 18.1939C130.798 18.436 130.75 18.6953 130.753 18.9565H130.753Z" fill="#848484"/>
<path d="M142.483 15.8398H145.938C147.437 15.8398 148.315 16.5982 148.315 17.7855C148.318 18.1622 148.191 18.5283 147.955 18.8226C147.719 19.1168 147.39 19.3213 147.021 19.4018V19.5213C147.469 19.5495 147.888 19.7483 148.193 20.0765C148.498 20.4048 148.665 20.8375 148.659 21.2852C148.659 22.6202 147.654 23.4914 145.973 23.4914H142.483V15.8398ZM143.982 16.999V18.9803H145.481C146.395 18.9803 146.832 18.6293 146.832 17.9821C146.832 17.3856 146.451 16.9989 145.649 16.9989L143.982 16.999ZM143.982 20.0905V22.3324H145.775C146.669 22.3324 147.147 21.9383 147.147 21.2148C147.147 20.4489 146.606 20.0905 145.586 20.0905L143.982 20.0905Z" fill="#848484"/>
</svg>
