<svg width="210" height="65" viewBox="0 0 210 65" fill="none" xmlns="http://www.w3.org/2000/svg">
<path d="M1 8.64085C1 4.41337 4.39764 1 8.57203 1H201.428C205.602 1 209 4.41337 209 8.64085V56.3592C209 60.5866 205.602 64 201.428 64H8.57203C4.39763 64 1 60.5866 1 56.3591V8.64085Z" stroke="#848484" stroke-width="2"/>
<path d="M86.2694 38.4081C86.2694 41.0172 85.4816 43.0591 84.0187 44.6472C82.3307 46.4622 79.9674 47.3697 77.2666 47.3697C74.5658 47.3697 72.3151 46.4622 70.5145 44.5338C68.6014 42.7188 67.7012 40.3366 67.7012 37.6141C67.7012 34.8916 68.6014 32.5094 70.5145 30.6943C72.4276 28.8793 74.6783 27.8584 77.2666 27.8584C78.617 27.8584 79.8549 28.0853 81.0928 28.6525C82.3307 29.2197 83.2309 29.9003 84.0187 30.6943L82.4432 32.2825C81.2053 30.8078 79.5173 30.1272 77.3792 30.1272C75.4661 30.1272 73.778 30.8078 72.3151 32.169C70.8521 33.5303 70.1769 35.3453 70.1769 37.5006C70.1769 39.656 70.8521 41.471 72.3151 42.8322C73.778 44.1935 75.4661 44.8741 77.3792 44.8741C79.4048 44.8741 81.2053 44.1935 82.5557 42.8322C83.456 41.9247 84.0187 40.6769 84.1312 39.0888H77.3792V36.82H86.3819C86.2694 37.5006 86.2694 37.9544 86.2694 38.4081Z" fill="#848484"/>
<path d="M89.0779 35.6872C90.3158 34.4394 91.8913 33.7588 93.6918 33.7588C95.6049 33.7588 97.1804 34.4394 98.3058 35.6872C99.5436 36.9351 100.106 38.6366 100.106 40.5651C100.106 42.4935 99.5436 44.0817 98.3058 45.4429C97.0679 46.6907 95.4924 47.3714 93.6918 47.3714C91.7787 47.3714 90.2032 46.6907 89.0779 45.4429C87.84 44.1951 87.2773 42.4935 87.2773 40.5651C87.2773 38.6366 87.9526 37.0485 89.0779 35.6872ZM90.8785 43.8548C91.6662 44.6488 92.679 45.1026 93.8044 45.1026C94.9297 45.1026 95.9425 44.6488 96.7303 43.8548C97.518 43.0607 97.9681 41.9263 97.9681 40.5651C97.9681 39.2038 97.518 38.0694 96.7303 37.2754C95.9425 36.4813 94.9297 36.0275 93.8044 36.0275C92.679 36.0275 91.6662 36.4813 90.8785 37.2754C90.0907 38.0694 89.6406 39.2038 89.6406 40.5651C89.6406 41.9263 90.0907 43.0607 90.8785 43.8548Z" fill="#848484"/>
<path d="M102.908 35.6872C104.146 34.4394 105.721 33.7588 107.522 33.7588C109.435 33.7588 111.01 34.4394 112.136 35.6872C113.374 36.9351 113.936 38.6366 113.936 40.5651C113.936 42.4935 113.374 44.0817 112.136 45.4429C110.898 46.6907 109.322 47.3714 107.522 47.3714C105.609 47.3714 104.033 46.6907 102.908 45.4429C101.67 44.1951 101.107 42.4935 101.107 40.5651C101.107 38.6366 101.67 37.0485 102.908 35.6872ZM104.709 43.8548C105.496 44.6488 106.509 45.1026 107.634 45.1026C108.76 45.1026 109.773 44.6488 110.56 43.8548C111.348 43.0607 111.798 41.9263 111.798 40.5651C111.798 39.2038 111.348 38.0694 110.56 37.2754C109.773 36.4813 108.76 36.0275 107.634 36.0275C106.509 36.0275 105.496 36.4813 104.709 37.2754C103.921 38.0694 103.471 39.2038 103.471 40.5651C103.471 41.9263 103.808 43.0607 104.709 43.8548Z" fill="#848484"/>
<path d="M121.15 52.9298C119.687 52.9298 118.449 52.5895 117.436 51.7954C116.536 51.0014 115.861 50.2073 115.411 49.1864L117.549 48.2789C117.774 48.9595 118.224 49.5267 118.899 49.9804C119.574 50.4342 120.25 50.6611 121.15 50.6611C122.5 50.6611 123.513 50.3207 124.188 49.5267C124.976 48.7326 125.314 47.7117 125.314 46.3504V45.1026H125.201C124.751 45.6698 124.188 46.237 123.4 46.6907C122.613 47.1445 121.825 47.3714 120.812 47.3714C119.124 47.3714 117.774 46.6907 116.536 45.4429C115.298 44.1951 114.735 42.4935 114.735 40.5651C114.735 38.6366 115.298 37.0485 116.536 35.6872C117.774 34.4394 119.124 33.7588 120.812 33.7588C121.712 33.7588 122.613 33.9857 123.4 34.326C124.188 34.7797 124.751 35.2335 125.201 35.9141H125.314V34.0991H127.564V46.237C127.564 48.3923 126.889 50.0939 125.651 51.2283C124.413 52.3626 122.95 52.9298 121.15 52.9298ZM121.262 45.216C122.388 45.216 123.288 44.7623 124.076 43.9682C124.863 43.1741 125.201 42.0398 125.201 40.5651C125.201 39.2038 124.863 38.0694 124.076 37.1619C123.288 36.3679 122.388 35.9141 121.262 35.9141C120.137 35.9141 119.237 36.3679 118.449 37.1619C117.661 37.956 117.211 39.0904 117.211 40.4516C117.211 41.8129 117.661 42.9473 118.449 43.7413C119.237 44.7623 120.137 45.216 121.262 45.216Z" fill="#848484"/>
<path d="M132.175 46.9144H129.812V28.3105H132.175V46.9144Z" fill="#848484"/>
<path d="M140.061 47.3714C138.148 47.3714 136.572 46.6907 135.447 45.4429C134.209 44.1951 133.646 42.4935 133.646 40.5651C133.646 38.7501 134.209 37.1619 135.335 35.8007C136.46 34.4394 137.923 33.7588 139.836 33.7588C141.749 33.7588 143.212 34.326 144.337 35.5738C145.463 36.8216 146.025 38.4097 146.025 40.5651V41.0188H136.01C136.122 42.2666 136.46 43.2876 137.248 44.0816C138.035 44.8757 138.936 45.216 139.948 45.216C141.636 45.216 142.762 44.5354 143.437 43.0607L145.575 43.9682C145.125 44.9892 144.45 45.7832 143.55 46.4639C142.537 47.031 141.411 47.3714 140.061 47.3714ZM143.437 39.0904C143.437 38.4098 143.099 37.6157 142.424 37.0485C141.861 36.3679 140.961 36.0275 139.723 36.0275C138.823 36.0275 138.035 36.2544 137.473 36.8216C136.797 37.3888 136.347 38.0694 136.122 39.0904H143.437Z" fill="#848484"/>
<path d="M155.354 46.9144H152.991V28.3105H159.293C160.869 28.3105 162.219 28.8777 163.344 29.8987C164.47 30.9196 165.032 32.2809 165.032 33.869C165.032 35.4571 164.47 36.8184 163.344 37.8393C162.219 38.8603 160.869 39.4275 159.293 39.4275H155.354V46.9144ZM155.354 37.1587H159.293C160.306 37.1587 161.094 36.8184 161.656 36.1378C162.219 35.4571 162.557 34.6631 162.557 33.869C162.557 33.0749 162.219 32.2809 161.656 31.6003C161.094 30.9196 160.306 30.5793 159.293 30.5793H155.354V37.1587Z" fill="#848484"/>
<path d="M168.976 46.9144H166.612V28.3105H168.976V46.9144Z" fill="#848484"/>
<path d="M175.048 47.3702C173.697 47.3702 172.572 47.0299 171.672 46.2358C170.771 45.4418 170.321 44.4208 170.321 43.173C170.321 41.8118 170.884 40.6774 171.897 39.8833C172.91 39.0892 174.26 38.7489 175.835 38.7489C177.186 38.7489 178.424 38.9758 179.212 39.543V39.2027C179.212 38.2952 178.874 37.5011 178.311 36.9339C177.636 36.3667 176.848 36.1399 175.948 36.1399C175.273 36.1399 174.598 36.2533 174.035 36.5936C173.472 36.9339 173.135 37.3877 172.91 37.9549L170.771 37.0474C171.109 36.2533 171.672 35.5727 172.459 34.892C173.36 34.2114 174.485 33.8711 175.835 33.8711C177.411 33.8711 178.761 34.3248 179.887 35.3458C180.9 36.2533 181.462 37.6145 181.462 39.4296V47.1433H179.212V45.3283C178.199 46.5762 176.848 47.3702 175.048 47.3702ZM175.385 45.2149C176.398 45.2149 177.298 44.8746 178.086 44.0805C178.874 43.3999 179.324 42.4924 179.324 41.4714C178.649 40.9043 177.636 40.6774 176.286 40.6774C175.16 40.6774 174.26 40.9043 173.697 41.4714C173.135 41.9252 172.797 42.6058 172.797 43.2865C172.797 43.8536 173.022 44.4208 173.585 44.7611C174.147 44.988 174.71 45.2149 175.385 45.2149Z" fill="#848484"/>
<path d="M186.762 52.5859H184.286L187.212 46.12L182.035 34.209H184.623L188.337 43.3975L192.051 34.209H194.639L186.762 52.5859Z" fill="#848484"/>
<path d="M73.7614 23.6748V21.1133H73.1261V16.42H69.0492V17.2955C69.0492 18.9977 68.8079 20.2055 68.1325 21.1133H67.6982V23.6748H68.9125V22.1914H72.5471V23.6748H73.7614ZM71.8717 21.1133H69.5317C70.0383 20.1811 70.2956 19.1274 70.2956 17.5467V17.4495H71.8717V21.1133Z" fill="#848484"/>
<path d="M77.0368 16.2822C75.324 16.2822 74.1982 17.4819 74.1982 19.3138C74.1982 21.1214 75.332 22.3292 77.0287 22.3292C78.7093 22.3292 79.8432 21.1133 79.8432 19.3138C79.8432 17.5062 78.7093 16.2822 77.0368 16.2822ZM77.0207 17.3198C77.9776 17.3198 78.5726 18.0736 78.5726 19.2895C78.5726 20.5216 77.9856 21.2835 77.0368 21.2835C76.0638 21.2754 75.4687 20.5297 75.4687 19.2895C75.4687 18.0898 76.0718 17.3198 77.0207 17.3198Z" fill="#848484"/>
<path d="M85.8204 19.9623H84.574C84.4695 20.8053 84.0192 21.2592 83.2633 21.2592C82.3385 21.2592 81.7515 20.4973 81.7515 19.3057C81.7515 18.3411 82.1777 17.3441 83.2794 17.3441C83.9548 17.3441 84.4212 17.717 84.5499 18.3492H85.7802C85.6837 17.1577 84.6785 16.2822 83.3035 16.2822C81.5505 16.2822 80.489 17.6197 80.489 19.2976C80.489 21.1214 81.5907 22.3292 83.2552 22.3292C84.8233 22.3292 85.6917 21.3727 85.8204 19.9623Z" fill="#848484"/>
<path d="M90.7789 16.42H86.0748V17.4981H87.7956V22.1914H89.0581V17.4981H90.7789V16.42Z" fill="#848484"/>
<path d="M91.7063 22.1671C91.8269 22.2157 92.1003 22.2968 92.4059 22.2968C93.3307 22.2968 93.781 21.8428 94.3117 20.6675L96.2416 16.42H94.8987L93.6282 19.4597L92.3335 16.42H90.9424L92.623 19.9866C92.7356 20.2217 92.8884 20.4811 92.8884 20.7323C92.8884 20.9917 92.6954 21.2268 92.3094 21.2268C92.0762 21.2268 91.8591 21.1619 91.7063 21.0971V22.1671Z" fill="#848484"/>
<path d="M101.653 16.42H96.8044V22.1914H98.0589V17.4981H100.399V22.1914H101.653V16.42Z" fill="#848484"/>
<path d="M107.614 16.42H106.359V18.5924H104.019V16.42H102.765V22.1914H104.019V19.7029H106.359V22.1914H107.614V16.42Z" fill="#848484"/>
<path d="M111.314 16.2822C109.602 16.2822 108.476 17.4819 108.476 19.3138C108.476 21.1214 109.61 22.3292 111.306 22.3292C112.987 22.3292 114.121 21.1133 114.121 19.3138C114.121 17.5062 112.987 16.2822 111.314 16.2822ZM111.298 17.3198C112.255 17.3198 112.85 18.0736 112.85 19.2895C112.85 20.5216 112.263 21.2835 111.314 21.2835C110.341 21.2754 109.746 20.5297 109.746 19.2895C109.746 18.0898 110.349 17.3198 111.298 17.3198Z" fill="#848484"/>
<path d="M117.214 16.42V22.1914H120.076C121.154 22.1914 122.014 21.5997 122.014 20.4729C122.014 19.6705 121.564 19.2328 120.969 19.0625C121.435 18.8518 121.749 18.4303 121.749 17.871C121.749 16.8496 120.929 16.42 119.924 16.42H117.214ZM118.436 17.4008H119.578C120.06 17.4008 120.527 17.4981 120.527 18.0817C120.527 18.6653 120.036 18.7545 119.578 18.7545H118.436V17.4008ZM118.436 19.6137H119.634C120.197 19.6137 120.76 19.7029 120.76 20.4C120.76 21.0809 120.237 21.1863 119.698 21.1863H118.436V19.6137Z" fill="#848484"/>
<path d="M16.9736 32.4793C16.9736 26.5653 16.9736 20.5376 16.9736 14.6236C16.9736 13.9412 17.082 13.2588 17.6237 12.6901C17.8404 12.4627 17.9487 12.4627 18.1654 12.6901C21.9572 16.7844 25.8574 20.8787 29.6493 24.9731C32.1411 27.5889 34.6329 30.3184 37.1247 32.9342C37.3414 33.1617 37.3414 33.2754 37.1247 33.6166C31.0577 39.9855 24.9907 46.3545 18.9237 52.7234C18.5987 53.0646 18.2737 53.0646 17.9487 52.8371C17.2986 52.2685 17.082 51.5861 17.082 50.79C17.082 47.2643 17.082 43.7386 17.082 40.213C16.9736 37.4835 16.9736 34.9814 16.9736 32.4793Z" fill="#848484"/>
<path d="M19.1377 12.0059C19.5711 12.0059 19.8961 12.1196 20.2211 12.3471C28.0215 16.8963 35.8219 21.4455 43.5139 26.1085C43.839 26.3359 43.839 26.4497 43.6223 26.6771C41.8889 28.4968 40.1554 30.3165 38.422 32.1362C38.2053 32.3637 38.097 32.4774 37.8803 32.1362C31.705 25.5398 25.5297 18.9434 19.246 12.2333C19.3544 12.2333 19.246 12.1196 19.1377 12.0059Z" fill="#848484"/>
<path d="M20.876 52.4969C26.5096 46.4691 32.1432 40.5551 37.7768 34.5274C38.1018 34.1862 38.3185 34.1862 38.6435 34.5274C40.052 36.1196 41.5687 37.5981 42.9771 39.1903C43.1938 39.4178 43.3021 39.5315 42.8688 39.759C35.6101 43.967 28.3514 48.0613 21.0927 52.2694C21.0927 52.2694 20.9843 52.3831 20.876 52.4969Z" fill="#848484"/>
<path d="M53.1685 32.7047C53.1685 33.3871 52.8435 33.842 52.4102 34.1832C52.0852 34.4106 51.6518 34.6381 51.3268 34.8656C49.16 36.1166 46.8849 37.3676 44.7181 38.7324C44.3931 38.9599 44.2848 38.8461 43.9597 38.6187C42.443 36.9127 40.8179 35.2068 39.3012 33.6145C39.0845 33.3871 39.0845 33.2733 39.3012 33.0459C41.1429 31.1124 42.9847 29.179 44.8265 27.3593C45.0431 27.1319 45.1515 27.1319 45.4765 27.2456C47.6433 28.4966 49.8101 29.7477 51.9768 31.1125C52.6269 31.3399 53.1685 31.7948 53.1685 32.7047Z" fill="#848484"/>
</svg>
